<svg width="49" height="49" viewBox="0 0 49 49" fill="none" xmlns="http://www.w3.org/2000/svg">
<path d="M14.4363 30.4659H35.7873M14.092 26.4482H36.1318M36.866 17.884L35.2583 36.6398C35.0805 38.7142 34.9915 39.7512 34.5305 40.5361C34.1246 41.2272 33.5219 41.7811 32.7986 42.1266C31.9772 42.5189 30.9362 42.519 28.8542 42.519H21.3711C19.289 42.519 18.2473 42.5189 17.426 42.1266C16.7027 41.7811 16.0996 41.2272 15.6937 40.536C15.2326 39.7512 15.1437 38.7142 14.9659 36.6398L13.3583 17.884C13.2545 16.6733 13.2027 16.0678 13.4065 15.6007C13.5855 15.1903 13.8965 14.8516 14.2901 14.6381C14.7381 14.3952 15.3457 14.3952 16.5608 14.3952H33.6641C34.8792 14.3952 35.4871 14.3952 35.9351 14.6381C36.3286 14.8516 36.6389 15.1903 36.8179 15.6007C37.0217 16.0678 36.9698 16.6733 36.866 17.884ZM35.653 14.3952H14.5716C12.7604 14.3952 11.8549 14.3952 11.3288 14.0161C10.865 13.6819 10.5658 13.1659 10.5058 12.5974C10.4376 11.9526 10.8873 11.1664 11.7859 9.59387C12.4572 8.41909 12.7929 7.83169 13.264 7.40376C13.6851 7.02119 14.1826 6.73239 14.7237 6.55655C15.3289 6.35986 16.0052 6.35986 17.3583 6.35986H32.867C34.2201 6.35986 34.8966 6.35986 35.5018 6.55655C36.0429 6.73239 36.54 7.02119 36.9611 7.40376C37.4322 7.83169 37.7679 8.41909 38.4392 9.59387C39.3378 11.1664 39.7872 11.9526 39.7191 12.5974C39.659 13.1659 39.3603 13.6819 38.8964 14.0161C38.3704 14.3952 37.4642 14.3952 35.653 14.3952Z" stroke="#FF7500" stroke-width="2" stroke-linecap="round" stroke-linejoin="round"/>
</svg>
